<svg width="211" height="180" viewBox="0 0 211 180" fill="none" xmlns="http://www.w3.org/2000/svg">
<g clip-path="url(#clip0_1160_25649)">
<path d="M6.26594 160.464C7.23097 162.395 8.30403 164.004 9.53733 165.398C11.522 167.598 13.8284 169.1 16.6178 170.119C22.3036 172.211 29.9741 172.211 40.5943 172.211L134.998 172.318C145.673 172.318 153.344 172.318 159.029 170.279C163.481 168.616 166.7 165.774 169.328 160.624C174.745 149.897 175.229 133.268 175.282 101.73V85.3691C175.335 47.6613 175.335 28.7807 169.488 17.0875C163.642 5.33964 154.148 0.995188 135.213 0.941777L40.8091 0.780332C21.8739 0.726922 12.3802 5.07137 6.4808 16.8192C0.578947 28.5659 0.524322 47.3931 0.524322 85.1542V92.1279C0.417501 129.889 0.364091 148.771 6.26473 160.464H6.26594Z" fill="#E5F1FF"/>
<path d="M22.7321 119.591C30.1889 101.14 44.5636 92.6098 71.4363 89.7135C71.7045 102.212 100.777 90.8946 98.5238 88.4802C119.551 90.1432 134.087 92.2347 146.21 110.097C152.109 118.786 157.849 132.785 159.726 135.093L170.937 100.655C178.393 103.178 187.19 102.801 196.577 102.856C196.577 102.856 208.109 171.889 182.844 178.218C178.607 179.291 173.082 179.398 167.45 179.023L167.397 178.97C153.665 177.95 139.022 173.605 139.022 173.605C94.3396 159.338 88.8699 146.356 45.2069 145.123C45.2069 145.123 16.6712 134.556 22.7321 119.591Z" fill="#0077FF"/>
<path d="M9.48242 165.398C11.4683 167.598 13.7747 169.1 16.5642 170.119C22.2499 172.211 29.9192 172.211 40.5406 172.211L134.945 172.318C145.618 172.318 153.289 172.318 158.974 170.279C163.427 168.616 166.645 165.774 169.273 160.624C174.691 149.897 175.174 133.268 175.227 101.73C173.787 101.468 172.37 101.092 170.991 100.603L159.779 135.038C157.903 132.732 152.217 118.786 146.263 110.043C134.14 92.1813 119.604 90.0898 98.577 88.4268C100.777 90.7866 71.7577 102.158 71.4895 89.6601C44.5633 92.5564 30.2421 101.085 22.7318 119.537C18.4408 130.265 12.5402 153.115 9.48364 165.398H9.48242Z" fill="#0077FF"/>
<path d="M183.519 105.474C176.444 104.774 170.884 102.439 171.099 100.257C171.315 98.0759 177.225 96.8741 184.301 97.5745C191.375 98.2737 196.936 100.609 196.72 102.792C196.504 104.973 190.594 106.174 183.519 105.474ZM188.047 48.4127C188.315 48.4127 188.584 48.2512 188.745 48.0364L194.162 38.9178C194.266 38.7304 194.297 38.5109 194.247 38.3025C194.197 38.094 194.071 37.9117 193.894 37.7913C193.707 37.6873 193.487 37.6572 193.279 37.7068C193.07 37.7565 192.888 37.8823 192.768 38.0596L187.35 47.1782C187.246 47.3655 187.216 47.585 187.265 47.7936C187.315 48.0021 187.441 48.1845 187.618 48.3047C187.779 48.3581 187.887 48.4115 188.047 48.4115V48.4127ZM178.553 44.1204H178.607C179.036 44.067 179.358 43.6919 179.305 43.2622L177.857 28.351C177.803 27.9213 177.427 27.5996 176.998 27.6542C176.569 27.7077 176.247 28.0827 176.3 28.5125L177.748 43.4237C177.775 43.6177 177.872 43.7953 178.02 43.9235C178.168 44.0517 178.357 44.1217 178.553 44.1204ZM172.117 47.2316C172.217 47.2367 172.316 47.2203 172.409 47.1834C172.502 47.1465 172.585 47.0901 172.654 47.0179C172.803 46.8715 172.892 46.6741 172.902 46.4652C172.911 46.2563 172.842 46.0514 172.707 45.8915L168.255 41.2241C168.108 41.0748 167.911 40.9863 167.702 40.9764C167.493 40.9665 167.288 41.0359 167.128 41.1707C166.979 41.3171 166.89 41.5146 166.881 41.7235C166.871 41.9324 166.94 42.1373 167.075 42.2972L171.527 46.9633C171.602 47.0458 171.693 47.1121 171.795 47.1583C171.896 47.2044 172.006 47.2293 172.117 47.2316Z" fill="#252040"/>
<path d="M48.5862 100.495C49.283 108.434 67.5202 113.368 89.3517 111.492C111.182 109.614 131.082 106.288 129.634 98.4571C127.059 84.4575 107.696 77.4304 85.8643 79.3082C64.034 81.1315 47.8883 92.5564 48.5862 100.495Z" fill="#0077FF"/>
<path d="M169.703 71.3695C170.508 67.2399 171.42 62.5725 172.116 62.5725C173.351 62.5191 173.886 62.7874 174.154 63.4307C175.013 61.5007 179.787 58.0132 182.201 58.7112C185.419 59.6762 188.209 63.9138 189.013 65.254C193.465 58.7112 196.683 53.3459 200.76 52.5423C202.155 52.2752 203.388 54.7952 203.388 55.7069C203.388 55.7603 203.388 55.8149 203.441 55.8683C203.495 55.9217 203.495 55.9751 203.55 56.0285C203.603 56.0819 203.656 56.0819 203.71 56.0819H203.925C204.783 55.7603 206.284 55.5466 207.196 57.155C208.967 60.2662 202.208 69.1165 199.902 72.9256C199.848 72.9791 199.848 73.0325 199.848 73.0859C199.848 73.1393 199.902 73.1939 199.955 73.2473C200.009 73.3007 200.062 73.3007 200.117 73.3007C200.17 73.3007 200.224 73.2473 200.277 73.2473C203.227 70.5647 208.322 62.1974 209.985 64.7721C211.917 67.8298 194.216 88.2119 192.66 96.2587C192.338 97.8671 192.285 100.763 193.09 104.948C189.764 106.987 175.657 106.021 173.941 103.178C174.316 96.5804 174.959 87.5152 174.852 85.5305C174.638 80.6495 170.776 76.3051 169.703 71.3695V71.3695ZM180.377 73.0325C185.366 70.5112 182.738 65.6303 181.665 64.1287C180.698 62.7874 177.534 64.5572 177.374 65.1484C176.461 67.7764 175.496 67.8298 174.744 67.7752C174.852 68.3663 175.067 69.0097 175.335 69.7065C176.461 72.3891 178.822 73.7838 180.377 73.0325V73.0325Z" fill="#FF9F73"/>
<path d="M94.2862 104.196C93.888 104.196 93.5061 104.038 93.2245 103.756C92.9429 103.475 92.7847 103.093 92.7847 102.695C92.7847 102.296 92.9429 101.915 93.2245 101.633C93.5061 101.351 93.888 101.193 94.2862 101.193C94.6845 101.193 95.0664 101.351 95.348 101.633C95.6296 101.915 95.7878 102.296 95.7878 102.695C95.7878 103.093 95.6296 103.475 95.348 103.756C95.0664 104.038 94.6845 104.196 94.2862 104.196Z" fill="#171B4D"/>
<path d="M100.187 132.035H100.294C100.455 131.982 100.508 131.82 100.455 131.714C99.4354 128.656 99.7036 126.081 99.9719 123.4C100.294 120.18 100.67 116.909 99.0603 112.242C97.3438 107.254 94.5544 102.856 94.5544 102.801C94.501 102.695 94.2873 102.641 94.1781 102.695C94.0712 102.748 94.0178 102.962 94.0712 103.071C94.1247 103.123 96.8607 107.469 98.5237 112.403C100.079 116.909 99.757 120.181 99.3819 123.292C99.1149 126.028 98.8454 128.656 99.8651 131.82C99.9719 131.928 100.079 132.035 100.187 132.035Z" fill="white"/>
<path d="M101.152 136.165C100.924 136.217 100.686 136.186 100.48 136.078C100.273 135.97 100.112 135.791 100.025 135.575C99.4353 133.858 99.0602 131.982 98.792 129.944C98.7764 129.831 98.7835 129.716 98.8131 129.606C98.8426 129.495 98.8939 129.392 98.9639 129.302C99.0339 129.212 99.1213 129.137 99.2208 129.081C99.3203 129.025 99.43 128.99 99.5434 128.977C99.7706 128.926 100.009 128.957 100.215 129.065C100.422 129.173 100.583 129.351 100.67 129.567C101.313 131.445 101.742 133.323 101.957 135.2C101.957 135.683 101.635 136.111 101.152 136.165Z" fill="white"/>
<path d="M70.3642 103.607C69.9658 103.607 69.5837 103.449 69.302 103.168C69.0203 102.886 68.8621 102.504 68.8621 102.105C68.8621 101.707 69.0203 101.325 69.302 101.043C69.5837 100.761 69.9658 100.603 70.3642 100.603C70.7625 100.603 71.1444 100.761 71.426 101.043C71.7076 101.325 71.8658 101.706 71.8658 102.105C71.8658 102.503 71.7076 102.885 71.426 103.166C71.1444 103.448 70.7625 103.606 70.3642 103.606V103.607Z" fill="#171B4D"/>
<path d="M106.945 124.526C106.766 124.682 106.538 124.767 106.301 124.767C106.065 124.767 105.836 124.682 105.658 124.526C104.318 123.293 103.084 121.79 101.903 120.181C101.771 119.992 101.714 119.761 101.744 119.532C101.774 119.304 101.888 119.095 102.065 118.947C102.441 118.626 102.976 118.626 103.298 118.947C104.746 120.289 106.034 121.737 107.106 123.293C107.429 123.668 107.321 124.205 106.946 124.526H106.945Z" fill="white"/>
<path d="M104.316 121.093C104.37 121.093 104.423 121.093 104.478 121.039C104.585 120.932 104.638 120.772 104.531 120.664C101.635 116.694 95.9492 116.479 92.7846 116.694C91.6581 116.801 90.4782 116.909 89.2971 117.071C86.294 117.446 83.1829 117.767 80.2319 117.124C73.8494 115.675 69.505 109.132 70.5246 102.641C70.5246 102.48 70.47 102.373 70.3097 102.32C70.1483 102.32 70.0415 102.373 69.9881 102.533C68.915 109.345 73.4209 116.104 80.0717 117.661C83.1295 118.357 86.294 117.982 89.2971 117.606C90.4236 117.499 91.6035 117.339 92.73 117.231C95.7343 117.016 101.259 117.231 103.995 120.985C104.155 121.039 104.262 121.093 104.316 121.093Z" fill="white"/>
<path d="M81.6813 19.0722C71.7033 16.9261 69.7732 20.6272 66.1801 26.5278C65.7504 27.278 62.5859 28.0828 61.5128 28.2442C57.5968 28.7808 47.9951 29.639 46.9767 40.6876C46.2787 48.4127 42.0957 49.8063 41.2375 50.8793C37.4283 55.6535 39.5745 60.6959 45.1522 63.9139C50.1412 66.7568 41.1294 73.1393 43.5438 78.7717C44.9386 82.0443 49.283 84.1892 55.9338 83.4378C69.6118 86.657 68.807 83.331 79.3203 84.029C106.784 85.7454 98.2555 82.7945 109.197 82.0443C114.132 81.1315 117.029 86.0136 122.232 84.029C128.401 81.668 129.581 69.5462 124.323 65.5235C121.427 63.3239 122.822 60.4276 123.144 59.6228C125.343 54.3668 120.086 48.7878 117.244 47.5533C116.063 47.018 115.313 46.0517 115.473 45.0333C115.688 43.4237 119.657 34.7348 108.501 29.3173C105.658 27.976 102.44 27.9213 100.025 24.758C98.3089 22.505 92.5163 16.8193 83.666 19.1256C83.0748 19.179 82.3246 19.2324 81.6813 19.0722Z" fill="#252040"/>
<path d="M94.9295 62.4123C92.5685 69.8145 95.5194 83.331 96.8061 89.4999C96.9942 90.3816 96.9104 91.2996 96.5658 92.1327C96.2212 92.9658 95.632 93.6748 94.8761 94.166C88.814 98.082 77.7641 98.7253 73.0446 95.6142C71.6498 94.7026 70.9531 92.9861 71.1667 91.3231C71.7566 86.8172 71.8647 82.5262 69.9868 73.1393C75.0827 72.1743 81.1447 72.1743 86.2406 71.2093" fill="#FF9F73"/>
<path d="M71.5431 83.9209C86.3475 82.4193 91.1763 69.9225 85.6507 73.8919C80.1264 77.8078 70.7395 77.003 70.7395 77.003L71.5431 83.9221V83.9209Z" fill="#E8683C"/>
<path d="M59.4736 51.8456C57.7038 66.4885 60.4398 77.0553 75.2976 78.5568C86.8294 79.7367 98.0942 68.9017 99.5423 60.5345C106.194 59.7831 109.089 53.8824 106.515 50.8259C103.941 47.7682 99.8106 50.2894 96.9677 49.5926C94.9284 49.1095 94.1248 44.3887 90.7454 38.5961C86.3475 31.1405 76.6924 28.1908 69.1822 32.4819C59.4736 38.1142 59.4736 51.8456 59.4736 51.8456Z" fill="#FF9F73"/>
<path d="M68.3251 63.2705C67.4123 61.8211 68.3251 60.8027 69.6652 60.5878C74.1711 59.8364 78.0337 59.1931 79.267 59.8911C81.6814 61.3926 77.8188 65.254 74.1711 65.8985C71.3282 66.3804 69.2367 64.7186 68.3251 63.2693V63.2705Z" fill="white"/>
<path d="M73.5266 55.9217C73.4198 55.9217 73.3129 55.9217 73.2595 55.8683C71.8636 55.4386 70.9532 55.0101 70.6849 54.2053C70.4701 53.4539 70.952 52.864 71.4351 52.2752C71.8648 51.7375 72.4013 51.0407 72.6696 50.0745C72.6938 49.9718 72.738 49.875 72.7998 49.7895C72.8615 49.704 72.9396 49.6316 73.0294 49.5764C73.1193 49.5212 73.2192 49.4843 73.3233 49.4678C73.4275 49.4514 73.5339 49.4556 73.6364 49.4805C73.7389 49.5053 73.8354 49.5501 73.9206 49.6123C74.0057 49.6746 74.0776 49.7531 74.1323 49.8433C74.1869 49.9335 74.2232 50.0336 74.2391 50.1378C74.2549 50.2421 74.25 50.3484 74.2246 50.4508C73.9029 51.7375 73.2049 52.5957 72.6696 53.239C72.5616 53.4005 72.3467 53.6154 72.2933 53.7756C72.4547 53.8836 72.8298 54.0973 73.7414 54.3655C74.1712 54.4736 74.3848 54.9555 74.278 55.3318C74.1177 55.6534 73.8495 55.8683 73.5266 55.9217Z" fill="#E8683C"/>
<path d="M63.9797 41.8153C63.6046 43.2635 69.1301 43.2088 69.8803 42.1904C70.5237 41.3322 70.1486 40.4206 67.7354 40.2603C65.8041 40.0989 64.2479 40.9037 63.9797 41.8141V41.8153ZM82.3796 42.404C81.5748 43.9602 87.4208 45.2481 88.7087 44.067C89.5135 43.3169 88.7087 42.2438 86.3477 41.6539C84.4711 41.0639 82.8081 41.547 82.3783 42.4052L82.3796 42.404ZM84.4686 52.4585C83.3167 52.376 82.467 51.1354 82.5713 49.6873C82.6757 48.2391 83.6942 47.1333 84.8461 47.2158C85.9993 47.2996 86.849 48.5389 86.7446 49.9883C86.6402 51.4352 85.6218 52.5423 84.4686 52.4585ZM66.6101 51.6028C65.457 51.5202 64.6072 50.2796 64.7116 48.8315C64.816 47.3833 65.8345 46.2775 66.9864 46.36C68.1396 46.4438 68.9893 47.6832 68.8849 49.1313C68.7805 50.5795 67.7621 51.6865 66.6101 51.6028Z" fill="#171B4D"/>
</g>
<defs>
<clipPath id="clip0_1160_25649">
<rect width="210" height="178.439" fill="white" transform="translate(0.5 0.780334)"/>
</clipPath>
</defs>
</svg>
